<svg width="12" height="13" viewBox="0 0 12 13" fill="none" xmlns="http://www.w3.org/2000/svg">
<path d="M5.54167 12.5417C4.77361 12.5417 4.05417 12.3958 3.38333 12.1042C2.7125 11.8125 2.12674 11.4163 1.62604 10.9156C1.12535 10.4149 0.729167 9.82917 0.4375 9.15833C0.145833 8.4875 0 7.76806 0 7C0 6.23194 0.145833 5.5125 0.4375 4.84167C0.729167 4.17083 1.12535 3.58507 1.62604 3.08437C2.12674 2.58368 2.7125 2.1875 3.38333 1.89583C4.05417 1.60417 4.77361 1.45833 5.54167 1.45833V0L7.875 2.33333L5.54167 4.66667V3.20833C4.49167 3.20833 3.59722 3.57778 2.85833 4.31667C2.11944 5.05556 1.75 5.95 1.75 7C1.75 7.64167 1.89826 8.23715 2.19479 8.78646C2.49132 9.33576 2.8875 9.78056 3.38333 10.1208C3.53889 9.84861 3.76979 9.61771 4.07604 9.42813C4.38229 9.23854 4.73472 9.11944 5.13333 9.07083C5.10417 8.86667 5.06528 8.6625 5.01667 8.45833C4.96806 8.25417 4.90972 8.06458 4.84167 7.88958C4.73472 7.97708 4.61806 8.04514 4.49167 8.09375C4.36528 8.14236 4.22917 8.16667 4.08333 8.16667C3.7625 8.16667 3.48785 8.05243 3.25938 7.82396C3.0309 7.59549 2.91667 7.32083 2.91667 7V6.41667C2.91667 6.25139 2.88993 6.09583 2.83646 5.95C2.78299 5.80417 2.7125 5.66806 2.625 5.54167C3.11111 5.53194 3.54375 5.57569 3.92292 5.67292C4.25347 5.76042 4.55486 5.90382 4.82708 6.10313C5.09931 6.30243 5.24028 6.60139 5.25 7C5.25 7.0875 5.24271 7.16771 5.22813 7.24062C5.21354 7.31354 5.18681 7.38889 5.14792 7.46667C5.02153 7.36944 4.89514 7.28194 4.76875 7.20417C4.64236 7.12639 4.51111 7.05833 4.375 7C4.54028 7.12639 4.72986 7.32083 4.94375 7.58333C5.15764 7.84583 5.35694 8.15694 5.54167 8.51667C5.73611 8.04028 5.97917 7.57118 6.27083 7.10938C6.5625 6.64757 6.90278 6.22222 7.29167 5.83333C7.06806 5.98889 6.85417 6.15417 6.65 6.32917C6.44583 6.50417 6.24653 6.68889 6.05208 6.88333C5.98403 6.77639 5.93056 6.65729 5.89167 6.52604C5.85278 6.39479 5.83333 6.26111 5.83333 6.125C5.83333 5.71667 5.97431 5.37153 6.25625 5.08958C6.53819 4.80764 6.88333 4.66667 7.29167 4.66667H7.875C8.09861 4.66667 8.28333 4.6375 8.42917 4.57917C8.575 4.52083 8.69653 4.45278 8.79375 4.375C8.90069 4.2875 8.98333 4.19028 9.04167 4.08333C9.08056 4.73472 9.04653 5.31806 8.93958 5.83333C8.85208 6.27083 8.68681 6.67188 8.44375 7.03646C8.2007 7.40104 7.81667 7.58333 7.29167 7.58333C7.14583 7.58333 7.00729 7.56389 6.87604 7.525C6.74479 7.48611 6.62569 7.43264 6.51875 7.36458C6.45069 7.54931 6.37292 7.79479 6.28542 8.10104C6.19792 8.40729 6.12986 8.73542 6.08125 9.08542C6.45069 9.15347 6.77639 9.27986 7.05833 9.46458C7.34028 9.64931 7.55417 9.86806 7.7 10.1208C8.19583 9.78056 8.59201 9.33819 8.88854 8.79375C9.18507 8.24931 9.33333 7.65139 9.33333 7H11.0833C11.0833 7.76806 10.9375 8.4875 10.6458 9.15833C10.3542 9.82917 9.95799 10.4149 9.45729 10.9156C8.9566 11.4163 8.37083 11.8125 7.7 12.1042C7.02917 12.3958 6.30972 12.5417 5.54167 12.5417Z" fill="#0F5238"/>
</svg>
