<svg width="9" height="9" viewBox="0 0 9 9" fill="none" xmlns="http://www.w3.org/2000/svg">
<path d="M3.41667 3L4.34375 1.46875L3.72917 0.447917C3.64583 0.309028 3.52604 0.239583 3.36979 0.239583C3.21354 0.239583 3.09375 0.309028 3.01042 0.447917L1.98958 2.14583L3.41667 3ZM7.44792 5.83333L6.52083 4.29167L7.96875 3.45833L8.63542 4.57292C8.71181 4.69097 8.75347 4.82292 8.76042 4.96875C8.76736 5.11458 8.73611 5.25 8.66667 5.375C8.59722 5.51389 8.49479 5.625 8.35938 5.70833C8.22396 5.79167 8.07639 5.83333 7.91667 5.83333H7.44792ZM6.25 8.75L4.58333 7.08333L6.25 5.41667V6.25H8.22917L7.625 7.45833C7.54861 7.59722 7.44444 7.70833 7.3125 7.79167C7.18056 7.875 7.03472 7.91667 6.875 7.91667H6.25V8.75ZM2.21875 7.91667C2.07986 7.91667 1.95312 7.88021 1.83854 7.80729C1.72396 7.73438 1.63889 7.63889 1.58333 7.52083C1.52778 7.40972 1.50174 7.2934 1.50521 7.17188C1.50868 7.05035 1.54167 6.9375 1.60417 6.83333L1.95833 6.25H3.75V7.91667H2.21875ZM1.1875 6.72917L0.510417 5.375C0.447917 5.25 0.418403 5.11632 0.421875 4.97396C0.425347 4.8316 0.465278 4.69792 0.541667 4.57292L0.708333 4.29167L0 3.86458L2.28125 3.29167L2.85417 5.58333L2.13542 5.14583L1.1875 6.72917ZM6.8125 3.16667L4.53125 2.59375L5.25 2.16667L3.94792 0H5.41667C5.5625 0 5.69965 0.0364583 5.82812 0.109375C5.9566 0.182292 6.05903 0.28125 6.13542 0.40625L6.67708 1.3125L7.38542 0.875L6.8125 3.16667Z" fill="white"/>
</svg>
