<svg width="7" height="9" viewBox="0 0 7 9" fill="none" xmlns="http://www.w3.org/2000/svg">
<path d="M3.44792 7.08333C3.53125 7.07639 3.60243 7.0434 3.66146 6.98438C3.72049 6.92535 3.75 6.85417 3.75 6.77083C3.75 6.67361 3.71875 6.59549 3.65625 6.53646C3.59375 6.47743 3.51389 6.45139 3.41667 6.45833C3.13194 6.47917 2.82986 6.40104 2.51042 6.22396C2.19097 6.04688 1.98958 5.72569 1.90625 5.26042C1.89236 5.18403 1.8559 5.12153 1.79688 5.07292C1.73785 5.02431 1.67014 5 1.59375 5C1.49653 5 1.41667 5.03646 1.35417 5.10938C1.29167 5.18229 1.27083 5.26736 1.29167 5.36458C1.40972 5.99653 1.6875 6.44792 2.125 6.71875C2.5625 6.98958 3.00347 7.11111 3.44792 7.08333ZM3.33333 8.33333C2.38194 8.33333 1.58854 8.00694 0.953125 7.35417C0.317708 6.70139 0 5.88889 0 4.91667C0 4.22222 0.276042 3.46701 0.828125 2.65104C1.38021 1.83507 2.21528 0.951389 3.33333 0C4.45139 0.951389 5.28646 1.83507 5.83854 2.65104C6.39062 3.46701 6.66667 4.22222 6.66667 4.91667C6.66667 5.88889 6.34896 6.70139 5.71354 7.35417C5.07812 8.00694 4.28472 8.33333 3.33333 8.33333Z" fill="white"/>
</svg>
