<svg width="24" height="27" viewBox="0 0 24 27" fill="none" xmlns="http://www.w3.org/2000/svg">
<path d="M11.875 26.875C10.2292 26.875 8.6875 26.5625 7.25 25.9375C5.8125 25.3125 4.55729 24.4635 3.48438 23.3906C2.41146 22.3177 1.5625 21.0625 0.9375 19.625C0.3125 18.1875 0 16.6458 0 15C0 13.3542 0.3125 11.8125 0.9375 10.375C1.5625 8.9375 2.41146 7.68229 3.48438 6.60938C4.55729 5.53646 5.8125 4.6875 7.25 4.0625C8.6875 3.4375 10.2292 3.125 11.875 3.125V0L16.875 5L11.875 10V6.875C9.625 6.875 7.70833 7.66667 6.125 9.25C4.54167 10.8333 3.75 12.75 3.75 15C3.75 16.375 4.06771 17.651 4.70312 18.8281C5.33854 20.0052 6.1875 20.9583 7.25 21.6875C7.58333 21.1042 8.07812 20.6094 8.73438 20.2031C9.39062 19.7969 10.1458 19.5417 11 19.4375C10.9375 19 10.8542 18.5625 10.75 18.125C10.6458 17.6875 10.5208 17.2812 10.375 16.9062C10.1458 17.0938 9.89583 17.2396 9.625 17.3438C9.35417 17.4479 9.0625 17.5 8.75 17.5C8.0625 17.5 7.47396 17.2552 6.98438 16.7656C6.49479 16.276 6.25 15.6875 6.25 15V13.75C6.25 13.3958 6.19271 13.0625 6.07812 12.75C5.96354 12.4375 5.8125 12.1458 5.625 11.875C6.66667 11.8542 7.59375 11.9479 8.40625 12.1562C9.11458 12.3438 9.76042 12.651 10.3438 13.0781C10.9271 13.5052 11.2292 14.1458 11.25 15C11.25 15.1875 11.2344 15.3594 11.2031 15.5156C11.1719 15.6719 11.1146 15.8333 11.0312 16C10.7604 15.7917 10.4896 15.6042 10.2188 15.4375C9.94792 15.2708 9.66667 15.125 9.375 15C9.72917 15.2708 10.1354 15.6875 10.5938 16.25C11.0521 16.8125 11.4792 17.4792 11.875 18.25C12.2917 17.2292 12.8125 16.224 13.4375 15.2344C14.0625 14.2448 14.7917 13.3333 15.625 12.5C15.1458 12.8333 14.6875 13.1875 14.25 13.5625C13.8125 13.9375 13.3854 14.3333 12.9688 14.75C12.8229 14.5208 12.7083 14.2656 12.625 13.9844C12.5417 13.7031 12.5 13.4167 12.5 13.125C12.5 12.25 12.8021 11.5104 13.4062 10.9062C14.0104 10.3021 14.75 10 15.625 10H16.875C17.3542 10 17.75 9.9375 18.0625 9.8125C18.375 9.6875 18.6354 9.54167 18.8438 9.375C19.0729 9.1875 19.25 8.97917 19.375 8.75C19.4583 10.1458 19.3854 11.3958 19.1562 12.5C18.9688 13.4375 18.6146 14.2969 18.0938 15.0781C17.5729 15.8594 16.75 16.25 15.625 16.25C15.3125 16.25 15.0156 16.2083 14.7344 16.125C14.4531 16.0417 14.1979 15.9271 13.9688 15.7812C13.8229 16.1771 13.6562 16.7031 13.4688 17.3594C13.2812 18.0156 13.1354 18.7188 13.0312 19.4688C13.8229 19.6146 14.5208 19.8854 15.125 20.2812C15.7292 20.6771 16.1875 21.1458 16.5 21.6875C17.5625 20.9583 18.4115 20.0104 19.0469 18.8438C19.6823 17.6771 20 16.3958 20 15H23.75C23.75 16.6458 23.4375 18.1875 22.8125 19.625C22.1875 21.0625 21.3385 22.3177 20.2656 23.3906C19.1927 24.4635 17.9375 25.3125 16.5 25.9375C15.0625 26.5625 13.5208 26.875 11.875 26.875Z" fill="#002114"/>
</svg>
