<svg width="18" height="18" viewBox="0 0 18 18" fill="none" xmlns="http://www.w3.org/2000/svg">
<path d="M8.19 15.3H9.765V14.175C10.515 14.04 11.16 13.7475 11.7 13.2975C12.24 12.8475 12.51 12.18 12.51 11.295C12.51 10.665 12.33 10.0875 11.97 9.5625C11.61 9.0375 10.89 8.58 9.81 8.19C8.91 7.89 8.2875 7.6275 7.9425 7.4025C7.5975 7.1775 7.425 6.87 7.425 6.48C7.425 6.09 7.56375 5.7825 7.84125 5.5575C8.11875 5.3325 8.52 5.22 9.045 5.22C9.525 5.22 9.9 5.33625 10.17 5.56875C10.44 5.80125 10.635 6.09 10.755 6.435L12.195 5.85C12.03 5.325 11.7263 4.8675 11.2838 4.4775C10.8413 4.0875 10.35 3.87 9.81 3.825V2.7H8.235V3.825C7.485 3.99 6.9 4.32 6.48 4.815C6.06 5.31 5.85 5.865 5.85 6.48C5.85 7.185 6.05625 7.755 6.46875 8.19C6.88125 8.625 7.53 9 8.415 9.315C9.36 9.66 10.0163 9.9675 10.3838 10.2375C10.7513 10.5075 10.935 10.86 10.935 11.295C10.935 11.79 10.7587 12.1537 10.4062 12.3862C10.0537 12.6187 9.63 12.735 9.135 12.735C8.64 12.735 8.20125 12.5812 7.81875 12.2737C7.43625 11.9662 7.155 11.505 6.975 10.89L5.49 11.475C5.7 12.195 6.02625 12.7762 6.46875 13.2187C6.91125 13.6612 7.485 13.965 8.19 14.13V15.3V15.3M9 18C7.755 18 6.585 17.7637 5.49 17.2912C4.395 16.8187 3.4425 16.1775 2.6325 15.3675C1.8225 14.5575 1.18125 13.605 0.70875 12.51C0.23625 11.415 0 10.245 0 9C0 7.755 0.23625 6.585 0.70875 5.49C1.18125 4.395 1.8225 3.4425 2.6325 2.6325C3.4425 1.8225 4.395 1.18125 5.49 0.70875C6.585 0.23625 7.755 0 9 0C10.245 0 11.415 0.23625 12.51 0.70875C13.605 1.18125 14.5575 1.8225 15.3675 2.6325C16.1775 3.4425 16.8187 4.395 17.2912 5.49C17.7637 6.585 18 7.755 18 9C18 10.245 17.7637 11.415 17.2912 12.51C16.8187 13.605 16.1775 14.5575 15.3675 15.3675C14.5575 16.1775 13.605 16.8187 12.51 17.2912C11.415 17.7637 10.245 18 9 18V18" fill="#0F5238"/>
</svg>
