<svg width="13" height="13" viewBox="0 0 13 13" fill="none" xmlns="http://www.w3.org/2000/svg">
<path d="M4.78333 4.2L6.08125 2.05625L5.22083 0.627083C5.10417 0.432639 4.93646 0.335417 4.71771 0.335417C4.49896 0.335417 4.33125 0.432639 4.21458 0.627083L2.78542 3.00417L4.78333 4.2ZM10.4271 8.16667L9.12917 6.00833L11.1562 4.84167L12.0896 6.40208C12.1965 6.56736 12.2549 6.75208 12.2646 6.95625C12.2743 7.16042 12.2306 7.35 12.1333 7.525C12.0361 7.71944 11.8927 7.875 11.7031 7.99167C11.5135 8.10833 11.3069 8.16667 11.0833 8.16667H10.4271ZM8.75 12.25L6.41667 9.91667L8.75 7.58333V8.75H11.5208L10.675 10.4417C10.5681 10.6361 10.4222 10.7917 10.2375 10.9083C10.0528 11.025 9.84861 11.0833 9.625 11.0833H8.75V12.25ZM3.10625 11.0833C2.91181 11.0833 2.73438 11.0323 2.57396 10.9302C2.41354 10.8281 2.29444 10.6944 2.21667 10.5292C2.13889 10.3736 2.10243 10.2108 2.10729 10.0406C2.11215 9.87049 2.15833 9.7125 2.24583 9.56667L2.74167 8.75H5.25V11.0833H3.10625ZM1.6625 9.42083L0.714583 7.525C0.627083 7.35 0.585764 7.16285 0.590625 6.96354C0.595486 6.76424 0.651389 6.57708 0.758333 6.40208L0.991667 6.00833L0 5.41042L3.19375 4.60833L3.99583 7.81667L2.98958 7.20417L1.6625 9.42083ZM9.5375 4.43333L6.34375 3.63125L7.35 3.03333L5.52708 0H7.58333C7.7875 0 7.97951 0.0510417 8.15938 0.153125C8.33924 0.255208 8.48264 0.39375 8.58958 0.56875L9.34792 1.8375L10.3396 1.225L9.5375 4.43333Z" fill="#0F5238"/>
</svg>
